<svg xmlns="http://www.w3.org/2000/svg" xmlns:xlink="http://www.w3.org/1999/xlink" width="11px" height="18px" viewBox="0 0 11 18" version="1.1">
    <title>⚙️選擇icon</title>
    <g id="Symbols" stroke="none" stroke-width="1" fill="none" fill-rule="evenodd">
        <g id="header" transform="translate(-18.000000, -22.000000)" fill="#FFFFFF">
            <g id="⚙️選擇icon" transform="translate(18.756087, 22.243913)">
                <path d="M-1.51181395,4.13834163 L5.01191347,10.5900865 L11.5058994,4.16913097 C12.0212546,3.65945801 12.8508003,3.65945812 13.3661553,4.1691312 C13.874187,4.67156157 13.8787277,5.49070285 13.3762973,5.99873446 L13.3661551,6.00887665 L5.92507225,13.3679149 C5.40971705,13.8775879 4.58017136,13.8775878 4.06481628,13.3679147 C4.00463873,13.3084006 3.95152564,13.2444428 3.9054828,13.1770846 L-3.37207173,5.97808911 C-3.88010397,5.47565832 -3.88464484,4.65651619 -3.38221405,4.14848395 C-3.37885208,4.1450845 -3.3754713,4.14170372 -3.37207185,4.13834175 C-2.8567162,3.62866817 -2.02716966,3.62866812 -1.51181395,4.13834163 Z" id="Combined-Shape" transform="translate(4.997042, 8.753128) rotate(-270.000000) translate(-4.997042, -8.753128) "/>
            </g>
        </g>
    </g>
</svg>