<svg xmlns="http://www.w3.org/2000/svg" xmlns:xlink="http://www.w3.org/1999/xlink" width="50px" height="50px" viewBox="0 0 50 50" version="1.1">
    <title>bj_logo</title>
    <g id="bj_logo" stroke="none" stroke-width="1" fill="none" fill-rule="evenodd">
        <g id="Group-4" transform="translate(4.000000, 1.203920)" fill-rule="nonzero">
            <path d="M21.2045555,24.3851692 C21.2045555,23.3266361 21.0188466,22.3403983 20.6478986,21.4266883 C20.2765396,20.5133848 19.7716511,19.7233029 19.1332917,19.0573137 C18.4945214,18.3913245 17.7481644,17.8706231 16.8937512,17.4948609 C16.0393967,17.1193891 15.1286956,16.9313048 14.1622937,16.9313048 C13.1954221,16.9313048 12.2851906,17.1406422 11.4307774,17.5588526 C10.5764229,17.9774694 9.8296551,18.532199 9.19123696,19.2237965 C8.55246669,19.915394 8.05209762,20.7094826 7.68960151,21.6060043 C7.32710538,22.502526 7.14591602,23.4290111 7.14591602,24.3851692 C7.14591602,25.444167 7.32710538,26.4259915 7.68960151,27.3309331 C8.05209762,28.2361652 8.55246669,29.0214853 9.19123696,29.6874745 C9.8296551,30.3534057 10.5764229,30.8785204 11.4307774,31.2627025 C12.2851906,31.6470008 13.1954221,31.8390918 14.1622937,31.8390918 C15.1286956,31.8390918 16.0393967,31.6470008 16.8937512,31.2627025 C17.7481644,30.8785204 18.4945214,30.3534057 19.1332917,29.6874745 C19.7716511,29.0214853 20.2765396,28.2361652 20.6478986,27.3309331 C21.0188466,26.4259915 21.2045555,25.444167 21.2045555,24.3851692 M28.3245287,24.3851692 C28.3245287,26.5368445 27.9531696,28.5007838 27.2112149,30.276581 C26.468849,32.0528424 25.4591307,33.5769119 24.1820009,34.8487894 C22.9044603,36.1211313 21.407227,37.1073108 19.6899486,37.8073282 C17.9722593,38.5072877 16.129962,38.8575577 14.1622937,38.8575577 C12.211588,38.8575577 10.3778013,38.4989257 8.66052292,37.78172 C6.94283367,37.0645143 5.4411395,36.0655013 4.15549913,34.7847976 C2.86944789,33.5040357 1.85526875,31.9799662 1.11337255,30.2125893 C0.371006787,28.4451541 0,26.5028162 0,24.3851692 L0,0 L7.09408894,0 L7.09408894,12.8073283 C7.47360641,12.3294814 7.93558939,11.9023866 8.47927489,11.5266245 C9.02296035,11.1512107 9.60955138,10.8437954 10.239811,10.6044945 C10.8697184,10.365484 11.5214015,10.1818129 12.1945666,10.0537135 C12.8677318,9.92567214 13.5235234,9.8616805 14.1622937,9.8616805 C16.129962,9.8616805 17.9722593,10.2246676 19.6899486,10.9502932 C21.407227,11.6763254 22.9044603,12.6880553 24.1820009,13.985599 C25.4591307,15.2835492 26.468849,16.8160385 27.2112149,18.5834737 C27.9531696,20.3508507 28.3245287,22.2847686 28.3245287,24.3851692" id="Fill-1" fill="#FFFFFF"/>
            <path d="M23.0221307,48.7960804 L23.0221307,41.7520061 L26.9315833,41.8032229 C27.8810813,41.8032229 28.7613201,41.6111317 29.5724755,41.2268916 C30.3839832,40.8427096 31.0870824,40.3303698 31.6825362,39.6899889 C32.278049,39.0496661 32.7481317,38.3112072 33.0936064,37.4743221 C33.4386704,36.6378433 33.6114078,35.7581034 33.6114078,34.8359736 L33.6114078,10.9118112 L40.8349178,10.9118112 L40.8349178,34.8359736 L40.7831493,34.8359736 C40.7657757,36.1167353 40.5889299,37.3550489 40.2523766,38.5501596 C39.9158232,39.7452123 39.436819,40.8594913 38.8154808,41.8928808 C38.1940842,42.9258638 37.4517183,43.8652402 36.5888531,44.7104873 C35.7255772,45.5557924 34.7720292,46.281418 33.727916,46.8877128 C32.6833918,47.493717 31.5615673,47.9636083 30.3621488,48.2965738 C29.1626719,48.6295394 27.9154762,48.7960804 26.6209142,48.7960804 L23.0221307,48.7960804 Z" id="Fill-4" fill="#EE3945"/>
        </g>
    </g>
</svg>