<svg width="40" height="40" viewBox="0 0 40 40" fill="none" xmlns="http://www.w3.org/2000/svg">
<g clip-path="url(#clip0_595_2045)">
<path d="M39.9773 19.043C39.975 18.993 39.9727 18.9422 39.9695 18.8922C39.9688 18.8625 39.9664 18.8328 39.9648 18.8023C39.9531 18.6031 39.9383 18.4039 39.9211 18.2047C39.9008 17.9766 39.8766 17.7492 39.8492 17.5227C39.8391 17.4414 39.8289 17.3594 39.8172 17.2781C39.8063 17.1969 39.7953 17.1156 39.7828 17.0352C39.7578 16.8656 39.7313 16.6961 39.7016 16.5281C39.6891 16.4547 39.6758 16.3813 39.6617 16.3086C39.6469 16.2281 39.632 16.1477 39.6156 16.068C39.6 15.9875 39.5836 15.9078 39.5664 15.8281C39.5352 15.6789 39.5023 15.5305 39.4672 15.3828C39.4469 15.2984 39.4266 15.2141 39.4062 15.1297C39.2656 14.5656 39.1008 14.0094 38.9117 13.4617C38.8852 13.3836 38.8578 13.3063 38.8297 13.2289C38.7508 13.007 38.6672 12.7859 38.5789 12.5672C38.5492 12.4922 38.5188 12.4172 38.4875 12.3422C38.4609 12.2773 38.4336 12.2133 38.4062 12.1484C38.3758 12.0766 38.3445 12.0047 38.3125 11.9336C38.2844 11.8695 38.2562 11.8062 38.2273 11.743C38.2047 11.6922 38.1813 11.6422 38.1578 11.5914C38.15 11.5727 38.1406 11.5547 38.132 11.5359C38.107 11.4828 38.082 11.4289 38.0563 11.3758C37.9984 11.2531 37.9383 11.132 37.8773 11.0117C37.8422 10.9406 37.8055 10.8703 37.7687 10.7992C37.6852 10.6375 37.5984 10.4766 37.5094 10.3172C37.4867 10.275 37.4641 10.2336 37.4398 10.1922C37.4211 10.1578 37.4016 10.1242 37.382 10.0906H37.3813C37.3539 10.0422 37.3273 9.99375 37.2992 9.94609C37.2562 9.87344 37.2141 9.80156 37.1711 9.73047C37.0203 9.47891 36.8633 9.23047 36.7008 8.98516C36.6172 8.85938 36.5336 8.73516 36.4469 8.61094C36.3898 8.52812 36.332 8.44688 36.2734 8.36563C36.225 8.29766 36.1758 8.22969 36.1258 8.1625C36.1047 8.13281 36.0828 8.10391 36.0609 8.075C35.9805 7.96641 35.8984 7.85938 35.8156 7.75312C35.7148 7.62344 35.6117 7.49453 35.507 7.36641C35.4805 7.33437 35.4539 7.30156 35.4266 7.26875C35.1844 6.97578 34.9336 6.68984 34.6734 6.40938C34.6367 6.37031 34.6 6.33047 34.5625 6.29062L34.5555 6.28359C34.5031 6.22813 34.4508 6.17266 34.3969 6.11797C34.3133 6.03047 34.2281 5.94375 34.1422 5.85781C34.0805 5.79609 34.0188 5.73516 33.9563 5.675C33.9195 5.63828 33.882 5.60234 33.8445 5.56641C33.7883 5.51172 33.7313 5.45781 33.6734 5.40391C33.6047 5.33906 33.5352 5.275 33.4656 5.21172C33.3891 5.14141 33.3117 5.07266 33.2344 5.00391C33.1516 4.93047 33.0688 4.85781 32.9844 4.78672C32.9305 4.73906 32.875 4.69297 32.8195 4.64687C32.7547 4.59219 32.6891 4.53828 32.6234 4.48438C32.5578 4.43047 32.4922 4.37734 32.4258 4.325C32.3719 4.28203 32.3172 4.23906 32.2625 4.19609C32.2047 4.15156 32.1469 4.10625 32.0883 4.0625C32.0508 4.03359 32.0133 4.00547 31.9758 3.97734C31.9305 3.94297 31.8852 3.90859 31.8391 3.875C31.8164 3.85859 31.7938 3.84219 31.7711 3.825C31.7258 3.79297 31.6812 3.76016 31.6352 3.72734C31.5609 3.67344 31.4867 3.62109 31.4109 3.56875C31.2734 3.47187 31.1344 3.37812 30.9937 3.28516C30.9133 3.23203 30.8328 3.17969 30.7516 3.12813C30.6781 3.08125 30.6047 3.03437 30.5312 2.98906C30.5125 2.97656 30.4922 2.96406 30.4727 2.95234C30.4125 2.91484 30.3516 2.87891 30.2914 2.84219C30.2672 2.82734 30.243 2.81328 30.2188 2.79844C30.1445 2.75391 30.0703 2.71016 29.9953 2.66719C29.9125 2.61875 29.8297 2.57188 29.7453 2.525C29.707 2.50312 29.6688 2.48203 29.6297 2.46094C29.4109 2.33984 29.1898 2.22344 28.9656 2.11172C28.9125 2.08438 28.8594 2.05781 28.8055 2.03203C28.7523 2.00547 28.6992 1.97969 28.6453 1.95391C28.5914 1.92813 28.5383 1.90234 28.4844 1.87734C28.4305 1.85156 28.3766 1.82656 28.3227 1.80234C28.0289 1.66797 27.732 1.54063 27.4328 1.42109C27.3578 1.39062 27.282 1.36094 27.2062 1.33203C27.1305 1.30312 27.0547 1.27422 26.9789 1.24609C26.9211 1.22422 26.8633 1.20312 26.8047 1.18203C26.7016 1.14453 26.5984 1.10859 26.4945 1.07344C26.4266 1.05 26.3586 1.02734 26.2906 1.00469C25.8523 0.859375 25.4086 0.730469 24.9602 0.616406C24.9008 0.601562 24.8406 0.586719 24.7805 0.571875C24.7125 0.555469 24.6453 0.539062 24.5766 0.523438C24.5195 0.509375 24.4625 0.496875 24.4047 0.483594C24.3273 0.466406 24.25 0.45 24.1719 0.433594C24.118 0.421875 24.0641 0.410937 24.0094 0.4C23.968 0.391406 23.9273 0.383594 23.8859 0.375781C23.4641 0.292187 23.0391 0.223438 22.6102 0.167969C22.5523 0.160156 22.4938 0.153125 22.4352 0.146094C22.2492 0.123438 22.0633 0.103906 21.8766 0.0867188C21.875 0.0859375 21.8742 0.0859375 21.8734 0.0867188C21.8086 0.0796875 21.743 0.0742188 21.6773 0.0695312C21.5094 0.0546875 21.3406 0.0429688 21.1719 0.034375C21.132 0.03125 21.0914 0.0289063 21.0516 0.0273438C21.0117 0.025 20.9719 0.0234375 20.9313 0.021875C20.9164 0.0210938 20.9023 0.0203125 20.8875 0.0203125C20.7953 0.015625 20.7031 0.0125 20.6109 0.009375C20.5984 0.00859375 20.5852 0.00859375 20.5719 0.00859375C20.4781 0.00546875 20.3844 0.003125 20.2898 0.00234375C20.1937 0.00078125 20.0969 0 20 0C19.6078 0 19.2172 0.0109375 18.8281 0.034375C16.0484 0.192969 13.3758 0.919531 10.9445 2.15703C10.8758 2.19219 10.8078 2.22734 10.7398 2.26328C10.5352 2.36953 10.3313 2.48047 10.1305 2.59531C9.71953 2.82891 9.31641 3.07734 8.92188 3.34062C8.72969 3.46953 8.53984 3.60156 8.35156 3.73672C7.47266 4.36875 6.63828 5.07734 5.85781 5.85781C5.04531 6.67031 4.31094 7.54141 3.65937 8.46016C3.51641 8.66094 3.37812 8.86406 3.24297 9.06953C2.81328 9.72578 2.42422 10.4039 2.07734 11.1023C0.877344 13.5133 0.176563 16.157 0.0296875 18.9039C0.0101562 19.268 0 19.6328 0 20C0 20.418 0.0125 20.8336 0.0382813 21.2477C0.0507812 21.4602 0.0671875 21.6719 0.0875 21.8836C0.296094 24.1383 0.880469 26.3133 1.80859 28.3367C1.91641 28.5711 2.02812 28.8031 2.14531 29.0328C2.49766 29.7281 2.89219 30.4039 3.32656 31.057C4.05781 32.1547 4.90391 33.1883 5.85781 34.1422C6.84219 35.1266 7.91172 35.9961 9.04844 36.7422C9.70391 37.1734 10.382 37.5641 11.0805 37.9117C11.2773 38.0102 11.4758 38.1055 11.6758 38.1969C13.7086 39.1281 15.8953 39.7117 18.1609 39.9164C18.3992 39.9391 18.6383 39.9562 18.8781 39.9688C19.25 39.9898 19.6242 40 20 40C20.1242 40 20.2477 39.9992 20.3711 39.9961C20.4359 39.9953 20.5008 39.9938 20.5648 39.9914C20.5711 39.9922 20.5773 39.9922 20.5836 39.9914C20.6078 39.9906 20.632 39.9906 20.6562 39.9891C20.6602 39.9891 20.6648 39.9891 20.6688 39.9883C20.7516 39.9859 20.8344 39.9828 20.9172 39.9789C21.007 39.975 21.0969 39.9703 21.1859 39.9648C21.1977 39.9648 21.2094 39.9641 21.2219 39.9633C21.3125 39.9578 21.4031 39.9523 21.493 39.9453C21.6578 39.9328 21.8227 39.9188 21.9867 39.9031C22.0727 39.8945 22.1594 39.8859 22.2453 39.8758C22.3305 39.8664 22.4156 39.8563 22.5 39.8461C22.5742 39.8375 22.6477 39.8273 22.7219 39.8172C22.7727 39.8109 22.8227 39.8039 22.8734 39.7961C22.9086 39.7914 22.9438 39.7859 22.9789 39.7805C23.0555 39.7695 23.132 39.7578 23.2078 39.7453C23.2656 39.7367 23.3227 39.7273 23.3797 39.7172C23.4227 39.7102 23.4664 39.7023 23.5094 39.6945C23.5172 39.6937 23.525 39.6922 23.5328 39.6906C23.5773 39.6828 23.6219 39.675 23.6656 39.6664C23.682 39.6641 23.6984 39.6609 23.7148 39.657C23.7586 39.6492 23.8016 39.6414 23.8445 39.632C23.8539 39.6313 23.8633 39.6297 23.8727 39.6266C23.907 39.6203 23.9414 39.6141 23.975 39.607C24.0414 39.5938 24.1062 39.5805 24.1719 39.5664C24.3789 39.5234 24.5844 39.4766 24.7891 39.4258C24.8594 39.4094 24.9289 39.3914 24.9984 39.3734C25.0398 39.3633 25.0813 39.3523 25.1227 39.3414C25.1773 39.3273 25.2313 39.3125 25.2859 39.2977C25.2875 39.2977 25.2883 39.2969 25.2898 39.2969C25.3555 39.2789 25.4219 39.2609 25.4875 39.2414C25.5453 39.225 25.6039 39.2086 25.6617 39.1914C25.7727 39.1586 25.8844 39.125 25.9945 39.0906C26.068 39.068 26.1406 39.0445 26.2133 39.0203C26.293 38.9945 26.3727 38.968 26.4523 38.9406C26.4922 38.9273 26.532 38.9141 26.5719 38.9C26.6117 38.8867 26.6516 38.8727 26.6914 38.8578C26.7703 38.8297 26.85 38.8016 26.9289 38.7719C27.0078 38.743 27.0859 38.7141 27.1648 38.6836C27.243 38.6531 27.3219 38.6227 27.4 38.5914C27.4781 38.5602 27.5562 38.5289 27.6336 38.4969C27.7117 38.4648 27.7891 38.432 27.8664 38.3992C27.8711 38.3977 27.8766 38.3953 27.882 38.393C27.9758 38.3523 28.0695 38.3117 28.1633 38.2695C28.1664 38.2687 28.1695 38.2672 28.1727 38.2656C28.2656 38.2234 28.3578 38.1813 28.45 38.1383C28.6383 38.05 28.825 37.9594 29.0102 37.8656C29.0969 37.8219 29.1836 37.7773 29.2703 37.732C29.3375 37.6969 29.4047 37.6609 29.4711 37.625C29.668 37.5203 29.8617 37.4109 30.0539 37.2992C30.1336 37.2523 30.2125 37.2055 30.2914 37.1578C30.4719 37.05 30.65 36.9383 30.8266 36.8242C30.8969 36.7789 30.9664 36.7328 31.0359 36.6867C31.2203 36.5648 31.4031 36.4391 31.5836 36.3094C31.6969 36.2289 31.8086 36.1469 31.9203 36.0641C32.032 35.9813 32.1422 35.8977 32.2516 35.8117L32.3828 35.7086C32.4484 35.657 32.5141 35.6047 32.5789 35.5516C32.6336 35.5078 32.6875 35.4633 32.7406 35.4187C32.8039 35.3664 32.8664 35.3141 32.9289 35.2609C33.3461 34.907 33.7508 34.5336 34.1422 34.1422C34.2336 34.0508 34.3242 33.9586 34.4133 33.8656C34.4672 33.8102 34.5203 33.7539 34.5727 33.6977C34.6758 33.5891 34.7758 33.4797 34.8758 33.3695C34.9703 33.2641 35.0641 33.1586 35.1562 33.0516C35.1656 33.0406 35.175 33.0297 35.1844 33.0188C35.2398 32.9547 35.2945 32.8898 35.3484 32.825C35.4312 32.7266 35.5133 32.6273 35.5938 32.5273C35.6273 32.4852 35.6609 32.443 35.6945 32.4008C35.7422 32.3406 35.7891 32.2812 35.8359 32.2203C35.8828 32.1602 35.9297 32.0992 35.9758 32.0375C36.0531 31.9359 36.1289 31.8336 36.2031 31.7313C36.2414 31.6781 36.2797 31.6258 36.3172 31.5727C36.3203 31.5695 36.3227 31.5656 36.3258 31.5609C36.4078 31.4461 36.4891 31.3289 36.5687 31.2117C36.6211 31.1359 36.6719 31.0594 36.7219 30.9828C36.7242 30.9797 36.7266 30.9766 36.7289 30.9727C36.7313 30.9688 36.7344 30.9648 36.7359 30.9609C36.768 30.9133 36.7992 30.8664 36.8297 30.818C36.8406 30.8008 36.8523 30.7836 36.8633 30.7656C36.925 30.6687 36.9867 30.5711 37.0477 30.4727C37.0984 30.3898 37.1484 30.307 37.1984 30.2234C37.218 30.1906 37.2375 30.157 37.257 30.1234C37.2867 30.0734 37.3164 30.0234 37.3453 29.9734C37.493 29.7188 37.6336 29.4609 37.7687 29.2008C37.8133 29.1148 37.857 29.0289 37.9 28.9422C37.9672 28.8086 38.0328 28.675 38.0961 28.5398C38.1477 28.4297 38.1992 28.3195 38.2492 28.2086C38.2766 28.1484 38.3023 28.0891 38.3289 28.0289C38.3609 27.957 38.3914 27.8844 38.4219 27.8125C38.5594 27.4914 38.6867 27.1656 38.8055 26.8375C38.8266 26.7812 38.8469 26.7242 38.8664 26.6672C38.943 26.4523 39.0148 26.2352 39.0828 26.0172C39.1063 25.9445 39.1281 25.8719 39.15 25.7992C39.1711 25.7305 39.1914 25.6617 39.2117 25.593C39.2391 25.4992 39.2656 25.4047 39.2914 25.3102C39.2953 25.2961 39.2992 25.282 39.3023 25.268C39.3234 25.1914 39.3438 25.1148 39.3633 25.0375C39.3688 25.018 39.3742 24.9984 39.3781 24.9789C39.3945 24.9164 39.4109 24.8531 39.4258 24.7898C39.4359 24.7484 39.4461 24.7062 39.4562 24.6648C39.5453 24.2898 39.6242 23.9109 39.6906 23.5297C39.7008 23.4719 39.7117 23.4133 39.7211 23.3547C39.7297 23.3055 39.7375 23.257 39.7453 23.2078C39.7586 23.1273 39.7711 23.0461 39.7828 22.9648C39.7953 22.8844 39.8063 22.8031 39.8172 22.7219C39.8336 22.6031 39.8484 22.4852 39.8617 22.3664C39.8695 22.3016 39.8766 22.2359 39.8836 22.1703C39.893 22.0859 39.9016 22.0008 39.9094 21.9156C39.9141 21.8727 39.918 21.8297 39.9211 21.7875C39.925 21.7453 39.9281 21.7023 39.932 21.6594C39.9383 21.5836 39.9438 21.5078 39.9492 21.432C39.9523 21.3992 39.9547 21.3656 39.9562 21.3328C39.9602 21.2703 39.9641 21.2086 39.9672 21.1461C39.9727 21.0508 39.9773 20.9555 39.9813 20.8602C39.9898 20.6695 39.9953 20.4789 39.9977 20.2875C39.9992 20.1914 40 20.0961 40 20V19.9789C40 19.6656 39.9922 19.3539 39.9773 19.043Z" fill="#F1F1F1"/>
<path d="M40 20C40 20.0961 39.9992 20.1914 39.9977 20.2875C39.9953 20.4789 39.9898 20.6695 39.9813 20.8602C39.9773 20.9555 39.9727 21.0508 39.9672 21.1461C39.9641 21.2086 39.9602 21.2703 39.9562 21.3328C39.9547 21.3656 39.9523 21.3992 39.9492 21.432C39.9438 21.5078 39.9383 21.5836 39.932 21.6594C39.9281 21.7023 39.925 21.7453 39.9211 21.7875C39.918 21.8297 39.9141 21.8727 39.9094 21.9156C39.9016 22.0008 39.893 22.0859 39.8836 22.1703C39.8766 22.2359 39.8695 22.3016 39.8617 22.3664C39.8484 22.4852 39.8336 22.6031 39.8172 22.7219C39.8062 22.8031 39.7953 22.8844 39.7828 22.9648C39.7711 23.0461 39.7586 23.1273 39.7453 23.2078C39.7375 23.257 39.7297 23.3055 39.7211 23.3547C39.7117 23.4133 39.7008 23.4719 39.6906 23.5297C39.6242 23.9109 39.5453 24.2898 39.4563 24.6648C39.4461 24.7062 39.4359 24.7484 39.4258 24.7898C39.4109 24.8531 39.3945 24.9164 39.3781 24.9789C39.3742 24.9984 39.3687 25.018 39.3633 25.0375C39.3438 25.1148 39.3234 25.1914 39.3023 25.268C39.2992 25.282 39.2953 25.2961 39.2914 25.3102C39.2656 25.4047 39.2391 25.4992 39.2117 25.593C39.1914 25.6617 39.1711 25.7305 39.15 25.7992C39.1281 25.8719 39.1063 25.9445 39.0828 26.0172C39.0148 26.2352 38.943 26.4523 38.8664 26.6672C38.8469 26.7242 38.8266 26.7812 38.8055 26.8375C38.6867 27.1656 38.5594 27.4914 38.4219 27.8125C38.3922 27.8852 38.3609 27.957 38.3289 28.0289C38.3023 28.0891 38.2766 28.1484 38.2492 28.2086C38.1992 28.3195 38.1477 28.4297 38.0961 28.5398C38.0328 28.675 37.9672 28.8086 37.9 28.9422C37.857 29.0289 37.8133 29.1148 37.7687 29.2008C37.6336 29.4609 37.493 29.7188 37.3453 29.9734C37.2969 30.057 37.2477 30.1406 37.1984 30.2234C37.1484 30.307 37.0984 30.3898 37.0477 30.4727C36.9867 30.5711 36.925 30.6687 36.8633 30.7656C36.8523 30.7836 36.8406 30.8008 36.8297 30.818C36.7992 30.8664 36.768 30.9133 36.7359 30.9609C36.7344 30.9648 36.7313 30.9688 36.7289 30.9727C36.7266 30.9766 36.7242 30.9797 36.7219 30.9828C36.6719 31.0594 36.6211 31.1359 36.5687 31.2117C36.4891 31.3289 36.4078 31.4461 36.3258 31.5609C36.3227 31.5656 36.3203 31.5695 36.3172 31.5727C36.2797 31.6258 36.2414 31.6781 36.2031 31.7313C36.1289 31.8336 36.0531 31.9359 35.9758 32.0375C35.9297 32.0992 35.8828 32.1602 35.8359 32.2203C35.7891 32.2812 35.7422 32.3406 35.6945 32.4008C35.6609 32.443 35.6273 32.4852 35.5938 32.5273C35.5133 32.6273 35.4312 32.7266 35.3484 32.825C35.2945 32.8898 35.2398 32.9547 35.1844 33.0188C35.175 33.0297 35.1656 33.0406 35.1562 33.0516C35.0641 33.1586 34.9703 33.2641 34.8758 33.3695C34.7758 33.4797 34.6758 33.5891 34.5727 33.6977C34.5203 33.7539 34.4672 33.8102 34.4133 33.8656C34.3242 33.9586 34.2336 34.0508 34.1422 34.1422C33.7508 34.5336 33.3461 34.907 32.9289 35.2609C32.8664 35.3141 32.8039 35.3664 32.7406 35.4187C32.6875 35.4633 32.6336 35.5078 32.5789 35.5516C32.5141 35.6047 32.4484 35.657 32.3828 35.7086L32.2516 35.8117C32.1422 35.8977 32.032 35.9813 31.9203 36.0641C31.8086 36.1469 31.6969 36.2289 31.5836 36.3094C31.4031 36.4391 31.2203 36.5648 31.0359 36.6867C30.9664 36.7328 30.8969 36.7789 30.8266 36.8242C30.65 36.9383 30.4719 37.05 30.2914 37.1578C30.2125 37.2055 30.1336 37.2523 30.0539 37.2992C29.8617 37.4109 29.668 37.5203 29.4711 37.625C29.4047 37.6609 29.3375 37.6969 29.2703 37.732C29.1836 37.7773 29.0969 37.8219 29.0102 37.8656C28.825 37.9602 28.6383 38.0508 28.45 38.1383C28.3578 38.1813 28.2656 38.2234 28.1727 38.2656C28.1695 38.2672 28.1664 38.2687 28.1633 38.2695C28.0695 38.3117 27.9758 38.3523 27.882 38.393C27.8766 38.3953 27.8711 38.3977 27.8664 38.3992C27.7891 38.432 27.7117 38.4648 27.6336 38.4969C27.5562 38.5289 27.4781 38.5602 27.4 38.5914C27.3219 38.6227 27.243 38.6531 27.1648 38.6836C27.0859 38.7141 27.0078 38.743 26.9289 38.7719C26.85 38.8016 26.7703 38.8297 26.6914 38.8578C26.6516 38.8727 26.6117 38.8867 26.5719 38.9C26.532 38.9141 26.4922 38.9273 26.4523 38.9406C26.3727 38.968 26.293 38.9945 26.2133 39.0203C26.1406 39.0445 26.068 39.068 25.9945 39.0906C25.8844 39.125 25.7727 39.1586 25.6617 39.1914C25.6039 39.2086 25.5453 39.225 25.4875 39.2414C25.4219 39.2609 25.3555 39.2789 25.2898 39.2969C25.2883 39.2969 25.2875 39.2977 25.2859 39.2977C25.2313 39.3125 25.1773 39.3273 25.1227 39.3414C25.0813 39.3523 25.0398 39.3633 24.9984 39.3734C24.9289 39.3914 24.8594 39.4094 24.7891 39.4258C24.5844 39.4766 24.3789 39.5234 24.1719 39.5664C24.1062 39.5805 24.0414 39.5938 23.975 39.607C23.9414 39.6141 23.907 39.6203 23.8727 39.6266C23.8633 39.6297 23.8539 39.6313 23.8445 39.632C23.8016 39.6414 23.7586 39.6492 23.7148 39.657C23.6984 39.6609 23.682 39.6641 23.6656 39.6664C23.6219 39.675 23.5773 39.6828 23.5328 39.6906C23.525 39.6922 23.5172 39.6937 23.5094 39.6945C23.4664 39.7023 23.4227 39.7102 23.3797 39.7172C23.3227 39.7273 23.2656 39.7367 23.2078 39.7453C23.132 39.7578 23.0555 39.7695 22.9789 39.7805C22.9438 39.7859 22.9086 39.7914 22.8734 39.7961C22.8227 39.8039 22.7727 39.8109 22.7219 39.8172C22.6477 39.8273 22.5742 39.8375 22.5 39.8461C22.4156 39.8563 22.3305 39.8664 22.2453 39.8758C22.1594 39.8859 22.0727 39.8945 21.9867 39.9031C21.8227 39.9188 21.6578 39.9328 21.493 39.9453C21.4031 39.9523 21.3125 39.9578 21.2219 39.9633C21.2094 39.9641 21.1977 39.9648 21.1859 39.9648C21.0969 39.9703 21.007 39.975 20.9172 39.9789C20.8344 39.9828 20.7516 39.9859 20.6687 39.9883C20.6648 39.9891 20.6602 39.9891 20.6562 39.9891C20.632 39.9906 20.6078 39.9906 20.5836 39.9914C20.5773 39.9922 20.5711 39.9922 20.5648 39.9914C20.5008 39.9938 20.4359 39.9953 20.3711 39.9961C20.2477 39.9992 20.1242 40 20 40V0C20.0969 0 20.1937 0.00078125 20.2898 0.00234375C20.5047 0.0046875 20.718 0.0117188 20.9313 0.021875C20.9719 0.0234375 21.0117 0.025 21.0516 0.0273438C21.0914 0.0289063 21.132 0.03125 21.1719 0.034375C21.3406 0.0429688 21.5094 0.0546875 21.6773 0.0695312C21.743 0.0742188 21.8086 0.0796875 21.8734 0.0867188C21.8742 0.0859375 21.875 0.0859375 21.8766 0.0867188C22.0633 0.103906 22.2492 0.123438 22.4352 0.146094C22.4938 0.153125 22.5523 0.160156 22.6102 0.167969C23.0391 0.223438 23.4641 0.292187 23.8859 0.375781C23.9273 0.383594 23.968 0.391406 24.0094 0.4C24.0641 0.410937 24.118 0.421875 24.1719 0.433594C24.25 0.45 24.3273 0.466406 24.4047 0.483594C24.4625 0.496875 24.5195 0.509375 24.5766 0.523438C24.6453 0.539062 24.7125 0.555469 24.7805 0.571875C24.8406 0.586719 24.9008 0.601562 24.9602 0.616406C25.4086 0.730469 25.8523 0.859375 26.2906 1.00469C26.3586 1.02734 26.4266 1.05 26.4945 1.07344C26.5984 1.10859 26.7016 1.14453 26.8047 1.18203C26.8633 1.20312 26.9211 1.22422 26.9789 1.24609C27.0547 1.27422 27.1305 1.30312 27.2062 1.33203C27.282 1.36094 27.3578 1.39062 27.4328 1.42109C27.732 1.54063 28.0289 1.66797 28.3227 1.80234C28.3766 1.82656 28.4305 1.85156 28.4844 1.87734C28.5383 1.90234 28.5914 1.92813 28.6453 1.95391C28.6992 1.97969 28.7523 2.00547 28.8055 2.03203C28.8594 2.05781 28.9125 2.08438 28.9656 2.11172C29.1898 2.22344 29.4109 2.33984 29.6297 2.46094C29.6688 2.48203 29.707 2.50312 29.7453 2.525C29.8297 2.57188 29.9125 2.61875 29.9953 2.66719C30.0703 2.71016 30.1445 2.75391 30.2187 2.79844C30.3039 2.84922 30.3883 2.9 30.4727 2.95234C30.4922 2.96406 30.5125 2.97656 30.5312 2.98906C30.6047 3.03437 30.6781 3.08125 30.7516 3.12813C30.8328 3.17969 30.9133 3.23203 30.9937 3.28516C31.1344 3.37812 31.2734 3.47187 31.4109 3.56875C31.4867 3.62109 31.5609 3.67344 31.6352 3.72734C31.6812 3.76016 31.7258 3.79297 31.7711 3.825C31.7938 3.84219 31.8164 3.85859 31.8391 3.875C31.8852 3.90859 31.9305 3.94297 31.9758 3.97734C32.0133 4.00547 32.0508 4.03359 32.0883 4.0625C32.1469 4.10625 32.2047 4.15156 32.2625 4.19609C32.3172 4.23906 32.3719 4.28203 32.4258 4.325C32.4922 4.37734 32.5578 4.43047 32.6234 4.48438C32.6891 4.53828 32.7547 4.59219 32.8195 4.64687C32.875 4.69297 32.9305 4.73906 32.9844 4.78672C33.0688 4.85781 33.1516 4.93047 33.2344 5.00391C33.3117 5.07266 33.3891 5.14141 33.4656 5.21172C33.5352 5.275 33.6047 5.33906 33.6734 5.40391C33.7312 5.45781 33.7883 5.51172 33.8445 5.56641C33.882 5.60234 33.9195 5.63828 33.9563 5.675C34.0188 5.73516 34.0805 5.79609 34.1422 5.85781C34.2281 5.94375 34.3133 6.03047 34.3969 6.11797C34.4508 6.17266 34.5031 6.22813 34.5555 6.28359L34.5625 6.29062C34.6 6.33047 34.6367 6.37031 34.6734 6.40938C34.9336 6.68984 35.1844 6.97578 35.4266 7.26875C35.4539 7.30156 35.4805 7.33437 35.507 7.36641C35.6117 7.49453 35.7148 7.62344 35.8156 7.75312C35.8984 7.85938 35.9805 7.96641 36.0609 8.075C36.0828 8.10391 36.1047 8.13281 36.1258 8.1625C36.1758 8.22969 36.225 8.29766 36.2734 8.36563C36.332 8.44688 36.3898 8.52812 36.4469 8.61094C36.5336 8.73516 36.6172 8.85938 36.7008 8.98516C36.8633 9.23047 37.0203 9.47891 37.1711 9.73047C37.2141 9.80156 37.2562 9.87344 37.2992 9.94609C37.3469 10.0273 37.3938 10.1094 37.4398 10.1922C37.4641 10.2336 37.4867 10.275 37.5094 10.3172C37.5984 10.4766 37.6852 10.6375 37.7687 10.7992C37.8055 10.8703 37.8422 10.9406 37.8773 11.0117C37.9383 11.132 37.9984 11.2531 38.0562 11.3758C38.082 11.4289 38.107 11.4828 38.132 11.5359C38.1406 11.5547 38.15 11.5727 38.1578 11.5914C38.1813 11.6422 38.2047 11.6922 38.2273 11.743C38.2563 11.8062 38.2844 11.8695 38.3125 11.9336C38.3445 12.0047 38.3758 12.0766 38.4062 12.1484C38.4336 12.2133 38.4609 12.2773 38.4875 12.3422C38.5188 12.4172 38.5492 12.4922 38.5789 12.5672C38.6672 12.7859 38.7508 13.007 38.8297 13.2289C38.8578 13.3063 38.8852 13.3836 38.9117 13.4617C39.1008 14.0094 39.2656 14.5656 39.4062 15.1297C39.4266 15.2141 39.4469 15.2984 39.4672 15.3828C39.5023 15.5305 39.5352 15.6789 39.5664 15.8281C39.5836 15.9078 39.6 15.9875 39.6156 16.068C39.632 16.1477 39.6469 16.2281 39.6617 16.3086C39.6758 16.3813 39.6891 16.4547 39.7016 16.5281C39.7312 16.6961 39.7578 16.8656 39.7828 17.0352C39.7953 17.1156 39.8062 17.1969 39.8172 17.2781C39.8289 17.3594 39.8391 17.4414 39.8492 17.5227C39.8766 17.7492 39.9008 17.9766 39.9211 18.2047C39.9383 18.4039 39.9531 18.6031 39.9648 18.8023C39.9664 18.8328 39.9687 18.8625 39.9695 18.8922C39.9727 18.9422 39.975 18.993 39.9773 19.043C39.9922 19.3609 40 19.6797 40 20Z" fill="#E1E1E4"/>
<path d="M39.9773 19.043C39.975 18.993 39.9727 18.9422 39.9695 18.8922C39.9688 18.8625 39.9664 18.8328 39.9648 18.8023C39.9531 18.6031 39.9383 18.4039 39.9211 18.2047C39.9008 17.9766 39.8766 17.7492 39.8492 17.5227C39.8391 17.4414 39.8289 17.3594 39.8172 17.2781C39.8063 17.1969 39.7953 17.1156 39.7828 17.0352C39.7578 16.8656 39.7313 16.6961 39.7016 16.5281C39.6891 16.4547 39.6758 16.3813 39.6617 16.3086C39.6469 16.2281 39.632 16.1477 39.6156 16.068C39.6 15.9875 39.5836 15.9078 39.5664 15.8281C39.5352 15.6789 39.5023 15.5305 39.4672 15.3828C39.4469 15.2984 39.4266 15.2141 39.4062 15.1297C39.2656 14.5656 39.1008 14.0094 38.9117 13.4617C38.8852 13.3836 38.8578 13.3063 38.8297 13.2289C38.7508 13.007 38.6672 12.7859 38.5789 12.5672C38.5492 12.4922 38.5188 12.4172 38.4875 12.3422C38.4609 12.2773 38.4336 12.2133 38.4062 12.1484C38.3758 12.0766 38.3445 12.0047 38.3125 11.9336C38.2844 11.8695 38.2562 11.8062 38.2273 11.743C38.2047 11.6922 38.1813 11.6422 38.1578 11.5914C38.15 11.5727 38.1406 11.5547 38.132 11.5359C38.107 11.4828 38.082 11.4289 38.0563 11.3758C37.9984 11.2531 37.9383 11.132 37.8773 11.0117C37.8422 10.9406 37.8055 10.8703 37.7687 10.7992C37.6852 10.6375 37.5984 10.4766 37.5094 10.3172C37.4867 10.275 37.4641 10.2336 37.4398 10.1922C37.3937 10.1094 37.3469 10.0273 37.2992 9.94609C37.2562 9.87344 37.2141 9.80156 37.1711 9.73047C37.0203 9.47891 36.8633 9.23047 36.7008 8.98516L31.5281 11.9773C30.5727 10.6078 29.3789 9.41562 28.0078 8.46172L30.9937 3.28516C30.9133 3.23203 30.8328 3.17969 30.7516 3.12813C30.6781 3.08125 30.6047 3.03437 30.5312 2.98906C30.5125 2.97656 30.4922 2.96406 30.4727 2.95234C30.3883 2.9 30.3039 2.84922 30.2188 2.79844C30.1445 2.75391 30.0703 2.71016 29.9953 2.66719C29.9125 2.61875 29.8297 2.57188 29.7453 2.525C29.707 2.50312 29.6688 2.48203 29.6297 2.46094C29.4109 2.33984 29.1898 2.22344 28.9656 2.11172C28.9125 2.08438 28.8594 2.05781 28.8055 2.03203C28.7523 2.00547 28.6992 1.97969 28.6453 1.95391C28.5914 1.92813 28.5383 1.90234 28.4844 1.87734C28.4305 1.85156 28.3766 1.82656 28.3227 1.80234C28.0289 1.66797 27.732 1.54063 27.4328 1.42109C27.3578 1.39062 27.282 1.36094 27.2062 1.33203C27.1305 1.30312 27.0547 1.27422 26.9789 1.24609C26.9211 1.22422 26.8633 1.20312 26.8047 1.18203C26.7016 1.14453 26.5984 1.10859 26.4945 1.07344C26.4266 1.05 26.3586 1.02734 26.2906 1.00469C25.8523 0.859375 25.4086 0.730469 24.9602 0.616406C24.9008 0.601562 24.8406 0.586719 24.7805 0.571875C24.7125 0.555469 24.6453 0.539062 24.5766 0.523438C24.5195 0.509375 24.4625 0.496875 24.4047 0.483594C24.3273 0.466406 24.25 0.45 24.1719 0.433594C24.118 0.421875 24.0641 0.410937 24.0094 0.4C23.968 0.391406 23.9273 0.383594 23.8859 0.375781C23.4641 0.292187 23.0391 0.223438 22.6102 0.167969C22.5523 0.160156 22.4938 0.153125 22.4352 0.146094C22.2492 0.123438 22.0633 0.103906 21.8766 0.0867188C21.875 0.0859375 21.8742 0.0859375 21.8734 0.0867188C21.8086 0.0796875 21.743 0.0742188 21.6773 0.0695312C21.5094 0.0546875 21.3406 0.0429688 21.1719 0.034375C21.132 0.03125 21.0914 0.0289063 21.0516 0.0273438C21.0117 0.025 20.9719 0.0234375 20.9313 0.021875C20.8117 0.0164062 20.6922 0.0117188 20.5719 0.00859375C20.525 0.00703125 20.4781 0.00546875 20.4312 0.0046875C20.3844 0.00390625 20.3367 0.003125 20.2898 0.00234375C20.1937 0.00078125 20.0969 0 20 0C19.6078 0 19.2172 0.0109375 18.8281 0.034375V5.99844C17.0969 6.14219 15.4531 6.60078 13.9555 7.31719L10.9445 2.15703C10.8758 2.19219 10.8078 2.22734 10.7398 2.26328C10.5352 2.37031 10.3328 2.48281 10.1312 2.59688L10.1305 2.59531C9.71953 2.82891 9.31641 3.07734 8.92188 3.34062C8.72969 3.46953 8.53984 3.60156 8.35156 3.73672C7.47266 4.36875 6.63828 5.07734 5.85781 5.85781C5.04531 6.67031 4.31094 7.54141 3.65937 8.46016C3.51641 8.66094 3.37812 8.86406 3.24297 9.06953C2.81328 9.72578 2.42422 10.4039 2.07734 11.1023L7.26484 14.0688C6.57109 15.5516 6.12891 17.1734 5.99375 18.8812L0.0296875 18.9039C0.0101562 19.268 0 19.6328 0 20C0 20.418 0.0125 20.8336 0.0382813 21.2477C0.0507812 21.4602 0.0671875 21.6719 0.0875 21.8836C0.296094 24.1383 0.880469 26.3133 1.80859 28.3367C1.91641 28.5711 2.02812 28.8031 2.14531 29.0328C2.49766 29.7281 2.89219 30.4039 3.32656 31.057L8.49219 28.0516C9.45156 29.4188 10.6477 30.6078 12.0211 31.5586L9.04844 36.7422C9.70391 37.1734 10.382 37.5641 11.0805 37.9117C11.2773 38.0102 11.4758 38.1055 11.6758 38.1969C13.7086 39.1281 15.8953 39.7117 18.1609 39.9164C18.3992 39.9391 18.6383 39.9562 18.8781 39.9688C19.25 39.9898 19.6242 40 20 40C20.1242 40 20.2477 39.9992 20.3711 39.9961C20.4359 39.9953 20.5008 39.9938 20.5648 39.9914C20.5711 39.9922 20.5773 39.9922 20.5836 39.9914C20.6078 39.9906 20.632 39.9906 20.6562 39.9891C20.6602 39.9891 20.6648 39.9891 20.6688 39.9883C20.7516 39.9859 20.8344 39.9828 20.9172 39.9789C21.007 39.975 21.0969 39.9703 21.1859 39.9648C21.1977 39.9648 21.2094 39.9641 21.2219 39.9633L21.207 33.9984C22.9133 33.8523 24.5336 33.4008 26.0117 32.6977L29.0102 37.8656C29.0969 37.8219 29.1836 37.7773 29.2703 37.732C29.3375 37.6969 29.4047 37.6609 29.4711 37.625C29.668 37.5203 29.8617 37.4109 30.0539 37.2992C30.1336 37.2523 30.2125 37.2055 30.2914 37.1578C30.4719 37.05 30.65 36.9383 30.8266 36.8242C30.8969 36.7789 30.9664 36.7328 31.0359 36.6867C31.2203 36.5648 31.4031 36.4391 31.5836 36.3094C31.6969 36.2289 31.8086 36.1469 31.9203 36.0641C32.032 35.9813 32.1422 35.8977 32.2516 35.8117L32.3828 35.7086C32.4484 35.657 32.5141 35.6047 32.5789 35.5516C32.6336 35.5078 32.6875 35.4633 32.7406 35.4187C32.8039 35.3664 32.8664 35.3141 32.9289 35.2609C33.3461 34.907 33.7508 34.5336 34.1422 34.1422C34.2336 34.0508 34.3242 33.9586 34.4133 33.8656C34.4672 33.8102 34.5203 33.7539 34.5727 33.6977C34.6758 33.5891 34.7758 33.4797 34.8758 33.3695C34.9703 33.2641 35.0641 33.1586 35.1562 33.0516C35.1656 33.0406 35.175 33.0297 35.1844 33.0188C35.2398 32.9547 35.2945 32.8898 35.3484 32.825C35.4312 32.7266 35.5133 32.6273 35.5938 32.5273C35.6273 32.4852 35.6609 32.443 35.6945 32.4008C35.7422 32.3406 35.7891 32.2812 35.8359 32.2203C35.8828 32.1602 35.9297 32.0992 35.9758 32.0375C36.0531 31.9359 36.1289 31.8336 36.2031 31.7313C36.2414 31.6781 36.2797 31.6258 36.3172 31.5727C36.3203 31.5695 36.3227 31.5656 36.3258 31.5609C36.4078 31.4461 36.4891 31.3289 36.5687 31.2117C36.6211 31.1359 36.6719 31.0594 36.7219 30.9828C36.7242 30.9797 36.7266 30.9766 36.7289 30.9727C36.7313 30.9688 36.7344 30.9648 36.7359 30.9609C36.768 30.9133 36.7992 30.8664 36.8297 30.818C36.8406 30.8008 36.8523 30.7836 36.8633 30.7656C36.925 30.6687 36.9867 30.5711 37.0477 30.4727C37.0984 30.3898 37.1484 30.307 37.1984 30.2234C37.2477 30.1406 37.2969 30.057 37.3453 29.9734C37.493 29.7188 37.6336 29.4609 37.7687 29.2008C37.8133 29.1148 37.857 29.0289 37.9 28.9422L32.7203 25.9633C33.4172 24.4828 33.8633 22.8609 34.0031 21.1539L39.9672 21.1461C39.9727 21.0508 39.9773 20.9555 39.9813 20.8602C39.9898 20.6695 39.9953 20.4789 39.9977 20.2875C39.9992 20.1914 40 20.0961 40 20C40 19.6797 39.9922 19.3609 39.9773 19.043ZM20 31.707C13.5445 31.707 8.29297 26.4555 8.29297 20C8.29297 13.5445 13.5445 8.29297 20 8.29297C26.4555 8.29297 31.707 13.5445 31.707 20C31.707 26.4555 26.4555 31.707 20 31.707Z" fill="#FFBE1B"/>
<path d="M28.2785 28.2785C26.067 30.489 23.127 31.707 20 31.707V8.29297C23.127 8.29297 26.067 9.51109 28.2785 11.7215C30.489 13.9329 31.707 16.873 31.707 20C31.707 23.127 30.489 26.0671 28.2785 28.2785Z" fill="#E1E1E4"/>
<path d="M40 20C40 20.0961 39.9992 20.1914 39.9977 20.2875C39.9953 20.4789 39.9898 20.6695 39.9813 20.8602C39.9773 20.9555 39.9727 21.0508 39.9672 21.1461L34.0031 21.1539C33.8633 22.8609 33.4172 24.4828 32.7203 25.9633L37.9 28.9422C37.857 29.0289 37.8133 29.1148 37.7687 29.2008C37.6336 29.4609 37.493 29.7188 37.3453 29.9734C37.2969 30.057 37.2477 30.1406 37.1984 30.2234C37.1484 30.307 37.0984 30.3898 37.0477 30.4727C36.9867 30.5711 36.925 30.6687 36.8633 30.7656C36.8523 30.7836 36.8406 30.8008 36.8297 30.818C36.7992 30.8664 36.768 30.9133 36.7359 30.9609C36.7344 30.9648 36.7313 30.9688 36.7289 30.9727C36.7266 30.9766 36.7242 30.9797 36.7219 30.9828C36.6719 31.0594 36.6211 31.1359 36.5687 31.2117C36.4891 31.3289 36.4078 31.4461 36.3258 31.5609C36.3227 31.5656 36.3203 31.5695 36.3172 31.5727C36.2797 31.6258 36.2414 31.6781 36.2031 31.7313C36.1289 31.8336 36.0531 31.9359 35.9758 32.0375C35.9297 32.0992 35.8828 32.1602 35.8359 32.2203C35.7891 32.2812 35.7422 32.3406 35.6945 32.4008C35.6609 32.443 35.6273 32.4852 35.5938 32.5273C35.5133 32.6273 35.4312 32.7266 35.3484 32.825C35.2945 32.8898 35.2398 32.9547 35.1844 33.0188C35.175 33.0297 35.1656 33.0406 35.1562 33.0516C35.0641 33.1586 34.9703 33.2641 34.8758 33.3695C34.7758 33.4797 34.6758 33.5891 34.5727 33.6977C34.5203 33.7539 34.4672 33.8102 34.4133 33.8656C34.3242 33.9586 34.2336 34.0508 34.1422 34.1422C33.7508 34.5336 33.3461 34.907 32.9289 35.2609C32.8664 35.3141 32.8039 35.3664 32.7406 35.4187C32.6875 35.4633 32.6336 35.5078 32.5789 35.5516C32.5141 35.6047 32.4484 35.657 32.3828 35.7086L32.2516 35.8117C32.1422 35.8977 32.032 35.9813 31.9203 36.0641C31.8086 36.1469 31.6969 36.2289 31.5836 36.3094C31.4031 36.4391 31.2203 36.5648 31.0359 36.6867C30.9664 36.7328 30.8969 36.7789 30.8266 36.8242C30.65 36.9383 30.4719 37.05 30.2914 37.1578C30.2125 37.2055 30.1336 37.2523 30.0539 37.2992C29.8617 37.4109 29.668 37.5203 29.4711 37.625C29.4047 37.6609 29.3375 37.6969 29.2703 37.732C29.1836 37.7773 29.0969 37.8219 29.0102 37.8656L26.0117 32.6977C24.5336 33.4008 22.9133 33.8523 21.207 33.9984L21.2219 39.9633C21.2094 39.9641 21.1977 39.9648 21.1859 39.9648C21.0969 39.9703 21.007 39.975 20.9172 39.9789C20.8344 39.9828 20.7516 39.9859 20.6687 39.9883C20.6648 39.9891 20.6602 39.9891 20.6562 39.9891C20.632 39.9906 20.6078 39.9906 20.5836 39.9914C20.5773 39.9922 20.5711 39.9922 20.5648 39.9914C20.5008 39.9938 20.4359 39.9953 20.3711 39.9961C20.2477 39.9992 20.1242 40 20 40V31.707C26.4555 31.707 31.707 26.4555 31.707 20C31.707 13.5445 26.4555 8.29297 20 8.29297V0C20.0969 0 20.1937 0.00078125 20.2898 0.00234375C20.3367 0.003125 20.3844 0.00390625 20.4312 0.0046875C20.4781 0.00546875 20.525 0.00703125 20.5719 0.00859375C20.6922 0.0117188 20.8117 0.0164062 20.9313 0.021875C20.9719 0.0234375 21.0117 0.025 21.0516 0.0273438C21.0914 0.0289063 21.132 0.03125 21.1719 0.034375C21.3406 0.0429688 21.5094 0.0546875 21.6773 0.0695312C21.743 0.0742188 21.8086 0.0796875 21.8734 0.0867188C21.8742 0.0859375 21.875 0.0859375 21.8766 0.0867188C22.0633 0.103906 22.2492 0.123438 22.4352 0.146094C22.4938 0.153125 22.5523 0.160156 22.6102 0.167969C23.0391 0.223438 23.4641 0.292187 23.8859 0.375781C23.9273 0.383594 23.968 0.391406 24.0094 0.4C24.0641 0.410937 24.118 0.421875 24.1719 0.433594C24.25 0.45 24.3273 0.466406 24.4047 0.483594C24.4625 0.496875 24.5195 0.509375 24.5766 0.523438C24.6453 0.539062 24.7125 0.555469 24.7805 0.571875C24.8406 0.586719 24.9008 0.601562 24.9602 0.616406C25.4086 0.730469 25.8523 0.859375 26.2906 1.00469C26.3586 1.02734 26.4266 1.05 26.4945 1.07344C26.5984 1.10859 26.7016 1.14453 26.8047 1.18203C26.8633 1.20312 26.9211 1.22422 26.9789 1.24609C27.0547 1.27422 27.1305 1.30312 27.2062 1.33203C27.282 1.36094 27.3578 1.39062 27.4328 1.42109C27.732 1.54063 28.0289 1.66797 28.3227 1.80234C28.3766 1.82656 28.4305 1.85156 28.4844 1.87734C28.5383 1.90234 28.5914 1.92813 28.6453 1.95391C28.6992 1.97969 28.7523 2.00547 28.8055 2.03203C28.8594 2.05781 28.9125 2.08438 28.9656 2.11172C29.1898 2.22344 29.4109 2.33984 29.6297 2.46094C29.6688 2.48203 29.707 2.50312 29.7453 2.525C29.8297 2.57188 29.9125 2.61875 29.9953 2.66719C30.0703 2.71016 30.1445 2.75391 30.2187 2.79844C30.3039 2.84922 30.3883 2.9 30.4727 2.95234C30.4922 2.96406 30.5125 2.97656 30.5312 2.98906C30.6047 3.03437 30.6781 3.08125 30.7516 3.12813C30.8328 3.17969 30.9133 3.23203 30.9937 3.28516L28.0078 8.46172C29.3789 9.41562 30.5727 10.6078 31.5281 11.9773L36.7008 8.98516C36.8633 9.23047 37.0203 9.47891 37.1711 9.73047C37.2141 9.80156 37.2562 9.87344 37.2992 9.94609C37.3469 10.0273 37.3938 10.1094 37.4398 10.1922C37.4641 10.2336 37.4867 10.275 37.5094 10.3172C37.5984 10.4766 37.6852 10.6375 37.7687 10.7992C37.8055 10.8703 37.8422 10.9406 37.8773 11.0117C37.9383 11.132 37.9984 11.2531 38.0562 11.3758C38.082 11.4289 38.107 11.4828 38.132 11.5359C38.1406 11.5547 38.15 11.5727 38.1578 11.5914C38.1813 11.6422 38.2047 11.6922 38.2273 11.743C38.2563 11.8062 38.2844 11.8695 38.3125 11.9336C38.3445 12.0047 38.3758 12.0766 38.4062 12.1484C38.4336 12.2133 38.4609 12.2773 38.4875 12.3422C38.5188 12.4172 38.5492 12.4922 38.5789 12.5672C38.6672 12.7859 38.7508 13.007 38.8297 13.2289C38.8578 13.3063 38.8852 13.3836 38.9117 13.4617C39.1008 14.0094 39.2656 14.5656 39.4062 15.1297C39.4266 15.2141 39.4469 15.2984 39.4672 15.3828C39.5023 15.5305 39.5352 15.6789 39.5664 15.8281C39.5836 15.9078 39.6 15.9875 39.6156 16.068C39.632 16.1477 39.6469 16.2281 39.6617 16.3086C39.6758 16.3813 39.6891 16.4547 39.7016 16.5281C39.7312 16.6961 39.7578 16.8656 39.7828 17.0352C39.7953 17.1156 39.8062 17.1969 39.8172 17.2781C39.8289 17.3594 39.8391 17.4414 39.8492 17.5227C39.8766 17.7492 39.9008 17.9766 39.9211 18.2047C39.9383 18.4039 39.9531 18.6031 39.9648 18.8023C39.9664 18.8328 39.9687 18.8625 39.9695 18.8922C39.9727 18.9422 39.975 18.993 39.9773 19.043C39.9922 19.3609 40 19.6797 40 20Z" fill="black" fill-opacity="0.1"/>
<path d="M12.5089 24.1193C11.9407 24.1193 11.4322 24.0128 10.9833 23.7997C10.5344 23.5838 10.1779 23.2884 9.91371 22.9134C9.65234 22.5384 9.51314 22.1094 9.49609 21.6264H11.0302C11.0586 21.9844 11.2134 22.277 11.4947 22.5043C11.7759 22.7287 12.114 22.8409 12.5089 22.8409C12.8185 22.8409 13.0941 22.7699 13.3356 22.6278C13.5771 22.4858 13.7674 22.2884 13.9066 22.0355C14.0458 21.7827 14.114 21.4943 14.1112 21.1705C14.114 20.8409 14.0444 20.5483 13.9023 20.2926C13.7603 20.0369 13.5657 19.8366 13.3185 19.6918C13.0714 19.544 12.7873 19.4702 12.4663 19.4702C12.2049 19.4673 11.9478 19.5156 11.695 19.6151C11.4421 19.7145 11.2418 19.8452 11.0941 20.0071L9.66655 19.7727L10.1225 15.2727H15.185V16.5938H11.4308L11.1793 18.9077H11.2305C11.3924 18.7173 11.6211 18.5597 11.9165 18.4347C12.212 18.3068 12.5359 18.2429 12.8881 18.2429C13.4165 18.2429 13.8881 18.3679 14.3029 18.6179C14.7177 18.8651 15.0444 19.206 15.283 19.6406C15.5217 20.0753 15.641 20.5724 15.641 21.1321C15.641 21.7088 15.5075 22.223 15.2404 22.6747C14.9762 23.1236 14.6083 23.4773 14.1367 23.7358C13.668 23.9915 13.1254 24.1193 12.5089 24.1193ZM20.2944 24.1662C19.5927 24.1662 18.9904 23.9886 18.4876 23.6335C17.9876 23.2756 17.6026 22.7599 17.3327 22.0866C17.0657 21.4105 16.9322 20.5966 16.9322 19.6449C16.935 18.6932 17.07 17.8835 17.337 17.2159C17.6069 16.5455 17.9918 16.0341 18.4918 15.6818C18.9947 15.3295 19.5955 15.1534 20.2944 15.1534C20.9933 15.1534 21.5941 15.3295 22.0969 15.6818C22.5998 16.0341 22.9847 16.5455 23.2518 17.2159C23.5217 17.8864 23.6566 18.696 23.6566 19.6449C23.6566 20.5994 23.5217 21.4148 23.2518 22.0909C22.9847 22.7642 22.5998 23.2784 22.0969 23.6335C21.5969 23.9886 20.9961 24.1662 20.2944 24.1662ZM20.2944 22.8324C20.8398 22.8324 21.2702 22.5639 21.5856 22.027C21.9038 21.4872 22.0629 20.6932 22.0629 19.6449C22.0629 18.9517 21.9904 18.3693 21.8455 17.8977C21.7006 17.4261 21.4961 17.071 21.2319 16.8324C20.9677 16.5909 20.6552 16.4702 20.2944 16.4702C19.7518 16.4702 19.3228 16.7401 19.0075 17.2798C18.6921 17.8168 18.533 18.6051 18.5302 19.6449C18.5273 20.3409 18.5969 20.9261 18.739 21.4006C18.8839 21.875 19.0884 22.233 19.3526 22.4744C19.6168 22.7131 19.9308 22.8324 20.2944 22.8324ZM28.2983 24.1662C27.5966 24.1662 26.9943 23.9886 26.4915 23.6335C25.9915 23.2756 25.6065 22.7599 25.3366 22.0866C25.0696 21.4105 24.9361 20.5966 24.9361 19.6449C24.9389 18.6932 25.0739 17.8835 25.3409 17.2159C25.6108 16.5455 25.9957 16.0341 26.4957 15.6818C26.9986 15.3295 27.5994 15.1534 28.2983 15.1534C28.9972 15.1534 29.598 15.3295 30.1009 15.6818C30.6037 16.0341 30.9886 16.5455 31.2557 17.2159C31.5256 17.8864 31.6605 18.696 31.6605 19.6449C31.6605 20.5994 31.5256 21.4148 31.2557 22.0909C30.9886 22.7642 30.6037 23.2784 30.1009 23.6335C29.6009 23.9886 29 24.1662 28.2983 24.1662ZM28.2983 22.8324C28.8438 22.8324 29.2741 22.5639 29.5895 22.027C29.9077 21.4872 30.0668 20.6932 30.0668 19.6449C30.0668 18.9517 29.9943 18.3693 29.8494 17.8977C29.7045 17.4261 29.5 17.071 29.2358 16.8324C28.9716 16.5909 28.6591 16.4702 28.2983 16.4702C27.7557 16.4702 27.3267 16.7401 27.0114 17.2798C26.696 17.8168 26.5369 18.6051 26.5341 19.6449C26.5313 20.3409 26.6009 20.9261 26.7429 21.4006C26.8878 21.875 27.0923 22.233 27.3565 22.4744C27.6207 22.7131 27.9347 22.8324 28.2983 22.8324Z" fill="black"/>
</g>
<defs>
<clipPath id="clip0_595_2045">
<rect width="40" height="40" fill="white"/>
</clipPath>
</defs>
</svg>
